<mxfile host="app.diagrams.net" modified="2023-07-18T07:59:17.677Z" agent="Mozilla/5.0 (Macintosh; Intel Mac OS X 10_15_7) AppleWebKit/537.36 (KHTML, like Gecko) Chrome/114.0.0.0 Safari/537.36" etag="DtegLRzD7rAfwYh3tyxN" version="21.6.1" type="github">
  <diagram name="第 1 页" id="Mn9Sd1jcA2e0a3krkTwv">
    <mxGraphModel dx="1088" dy="572" grid="0" gridSize="10" guides="1" tooltips="1" connect="1" arrows="1" fold="1" page="1" pageScale="1" pageWidth="827" pageHeight="1169" math="0" shadow="0">
      <root>
        <mxCell id="0" />
        <mxCell id="1" parent="0" />
        <mxCell id="rrv1fCtY0zLjdle_xPSd-7" value="" style="edgeStyle=orthogonalEdgeStyle;rounded=0;orthogonalLoop=1;jettySize=auto;html=1;" edge="1" parent="1" source="rrv1fCtY0zLjdle_xPSd-2" target="rrv1fCtY0zLjdle_xPSd-3">
          <mxGeometry relative="1" as="geometry" />
        </mxCell>
        <mxCell id="rrv1fCtY0zLjdle_xPSd-2" value="0" style="ellipse;whiteSpace=wrap;html=1;aspect=fixed;fillColor=#f8cecc;strokeColor=#b85450;" vertex="1" parent="1">
          <mxGeometry x="70" y="140" width="30" height="30" as="geometry" />
        </mxCell>
        <mxCell id="rrv1fCtY0zLjdle_xPSd-8" value="" style="edgeStyle=orthogonalEdgeStyle;rounded=0;orthogonalLoop=1;jettySize=auto;html=1;" edge="1" parent="1" source="rrv1fCtY0zLjdle_xPSd-3" target="rrv1fCtY0zLjdle_xPSd-4">
          <mxGeometry relative="1" as="geometry" />
        </mxCell>
        <mxCell id="rrv1fCtY0zLjdle_xPSd-3" value="1" style="ellipse;whiteSpace=wrap;html=1;aspect=fixed;fillColor=#f8cecc;strokeColor=#b85450;" vertex="1" parent="1">
          <mxGeometry x="70" y="260" width="30" height="30" as="geometry" />
        </mxCell>
        <mxCell id="rrv1fCtY0zLjdle_xPSd-4" value="3" style="ellipse;whiteSpace=wrap;html=1;aspect=fixed;fillColor=#f8cecc;strokeColor=#b85450;" vertex="1" parent="1">
          <mxGeometry x="70" y="360" width="30" height="30" as="geometry" />
        </mxCell>
        <mxCell id="rrv1fCtY0zLjdle_xPSd-9" value="" style="edgeStyle=orthogonalEdgeStyle;rounded=0;orthogonalLoop=1;jettySize=auto;html=1;" edge="1" parent="1" source="rrv1fCtY0zLjdle_xPSd-10" target="rrv1fCtY0zLjdle_xPSd-12">
          <mxGeometry relative="1" as="geometry" />
        </mxCell>
        <mxCell id="rrv1fCtY0zLjdle_xPSd-10" value="0" style="ellipse;whiteSpace=wrap;html=1;aspect=fixed;fillColor=#f8cecc;strokeColor=#b85450;" vertex="1" parent="1">
          <mxGeometry x="210" y="140" width="30" height="30" as="geometry" />
        </mxCell>
        <mxCell id="rrv1fCtY0zLjdle_xPSd-11" value="" style="edgeStyle=orthogonalEdgeStyle;rounded=0;orthogonalLoop=1;jettySize=auto;html=1;" edge="1" parent="1" source="rrv1fCtY0zLjdle_xPSd-12" target="rrv1fCtY0zLjdle_xPSd-13">
          <mxGeometry relative="1" as="geometry" />
        </mxCell>
        <mxCell id="rrv1fCtY0zLjdle_xPSd-12" value="1" style="ellipse;whiteSpace=wrap;html=1;aspect=fixed;fillColor=#f8cecc;strokeColor=#b85450;" vertex="1" parent="1">
          <mxGeometry x="210" y="260" width="30" height="30" as="geometry" />
        </mxCell>
        <mxCell id="rrv1fCtY0zLjdle_xPSd-13" value="3" style="ellipse;whiteSpace=wrap;html=1;aspect=fixed;" vertex="1" parent="1">
          <mxGeometry x="210" y="360" width="30" height="30" as="geometry" />
        </mxCell>
        <mxCell id="rrv1fCtY0zLjdle_xPSd-16" value="&lt;font style=&quot;font-size: 14px;&quot;&gt;input&lt;/font&gt;" style="text;html=1;strokeColor=none;fillColor=none;align=center;verticalAlign=middle;whiteSpace=wrap;rounded=0;" vertex="1" parent="1">
          <mxGeometry x="54" y="50" width="60" height="30" as="geometry" />
        </mxCell>
        <mxCell id="rrv1fCtY0zLjdle_xPSd-18" value="" style="endArrow=classic;html=1;rounded=0;exitX=0.5;exitY=1;exitDx=0;exitDy=0;" edge="1" parent="1" source="rrv1fCtY0zLjdle_xPSd-4">
          <mxGeometry width="50" height="50" relative="1" as="geometry">
            <mxPoint x="90" y="210" as="sourcePoint" />
            <mxPoint x="85" y="440" as="targetPoint" />
          </mxGeometry>
        </mxCell>
        <mxCell id="rrv1fCtY0zLjdle_xPSd-19" value="" style="endArrow=classic;html=1;rounded=0;exitX=0.5;exitY=1;exitDx=0;exitDy=0;" edge="1" parent="1">
          <mxGeometry width="50" height="50" relative="1" as="geometry">
            <mxPoint x="224.5" y="390" as="sourcePoint" />
            <mxPoint x="224.5" y="440" as="targetPoint" />
          </mxGeometry>
        </mxCell>
        <mxCell id="rrv1fCtY0zLjdle_xPSd-20" value="&lt;font style=&quot;font-size: 16px;&quot;&gt;1.&lt;/font&gt;" style="text;html=1;strokeColor=none;fillColor=none;align=center;verticalAlign=middle;whiteSpace=wrap;rounded=0;" vertex="1" parent="1">
          <mxGeometry x="50" y="20" width="60" height="30" as="geometry" />
        </mxCell>
        <mxCell id="rrv1fCtY0zLjdle_xPSd-21" value="&lt;font style=&quot;font-size: 16px;&quot;&gt;2.&lt;/font&gt;" style="text;html=1;strokeColor=none;fillColor=none;align=center;verticalAlign=middle;whiteSpace=wrap;rounded=0;" vertex="1" parent="1">
          <mxGeometry x="190" y="20" width="60" height="30" as="geometry" />
        </mxCell>
        <mxCell id="rrv1fCtY0zLjdle_xPSd-22" value="" style="edgeStyle=orthogonalEdgeStyle;rounded=0;orthogonalLoop=1;jettySize=auto;html=1;" edge="1" parent="1" source="rrv1fCtY0zLjdle_xPSd-23" target="rrv1fCtY0zLjdle_xPSd-25">
          <mxGeometry relative="1" as="geometry" />
        </mxCell>
        <mxCell id="rrv1fCtY0zLjdle_xPSd-23" value="0" style="ellipse;whiteSpace=wrap;html=1;aspect=fixed;fillColor=#f8cecc;strokeColor=#b85450;" vertex="1" parent="1">
          <mxGeometry x="454" y="140" width="30" height="30" as="geometry" />
        </mxCell>
        <mxCell id="rrv1fCtY0zLjdle_xPSd-24" value="" style="edgeStyle=orthogonalEdgeStyle;rounded=0;orthogonalLoop=1;jettySize=auto;html=1;" edge="1" parent="1" source="rrv1fCtY0zLjdle_xPSd-25" target="rrv1fCtY0zLjdle_xPSd-26">
          <mxGeometry relative="1" as="geometry" />
        </mxCell>
        <mxCell id="rrv1fCtY0zLjdle_xPSd-25" value="1" style="ellipse;whiteSpace=wrap;html=1;aspect=fixed;fillColor=#f8cecc;strokeColor=#b85450;" vertex="1" parent="1">
          <mxGeometry x="454" y="260" width="30" height="30" as="geometry" />
        </mxCell>
        <mxCell id="rrv1fCtY0zLjdle_xPSd-26" value="3" style="ellipse;whiteSpace=wrap;html=1;aspect=fixed;" vertex="1" parent="1">
          <mxGeometry x="454" y="360" width="30" height="30" as="geometry" />
        </mxCell>
        <mxCell id="rrv1fCtY0zLjdle_xPSd-29" value="" style="edgeStyle=orthogonalEdgeStyle;rounded=0;orthogonalLoop=1;jettySize=auto;html=1;" edge="1" parent="1" source="rrv1fCtY0zLjdle_xPSd-30" target="rrv1fCtY0zLjdle_xPSd-32">
          <mxGeometry relative="1" as="geometry" />
        </mxCell>
        <mxCell id="rrv1fCtY0zLjdle_xPSd-30" value="0" style="ellipse;whiteSpace=wrap;html=1;aspect=fixed;fillColor=#f8cecc;strokeColor=#b85450;" vertex="1" parent="1">
          <mxGeometry x="594" y="140" width="30" height="30" as="geometry" />
        </mxCell>
        <mxCell id="rrv1fCtY0zLjdle_xPSd-31" value="" style="edgeStyle=orthogonalEdgeStyle;rounded=0;orthogonalLoop=1;jettySize=auto;html=1;" edge="1" parent="1" source="rrv1fCtY0zLjdle_xPSd-32" target="rrv1fCtY0zLjdle_xPSd-33">
          <mxGeometry relative="1" as="geometry" />
        </mxCell>
        <mxCell id="rrv1fCtY0zLjdle_xPSd-32" value="1" style="ellipse;whiteSpace=wrap;html=1;aspect=fixed;fillColor=#f8cecc;strokeColor=#b85450;" vertex="1" parent="1">
          <mxGeometry x="594" y="260" width="30" height="30" as="geometry" />
        </mxCell>
        <mxCell id="rrv1fCtY0zLjdle_xPSd-33" value="3" style="ellipse;whiteSpace=wrap;html=1;aspect=fixed;fillColor=#f8cecc;strokeColor=#b85450;" vertex="1" parent="1">
          <mxGeometry x="594" y="360" width="30" height="30" as="geometry" />
        </mxCell>
        <mxCell id="rrv1fCtY0zLjdle_xPSd-37" value="&lt;span style=&quot;color: rgb(0, 0, 0); font-family: Helvetica; font-size: 14px; font-style: normal; font-variant-ligatures: normal; font-variant-caps: normal; font-weight: 400; letter-spacing: normal; orphans: 2; text-align: center; text-indent: 0px; text-transform: none; widows: 2; word-spacing: 0px; -webkit-text-stroke-width: 0px; background-color: rgb(251, 251, 251); text-decoration-thickness: initial; text-decoration-style: initial; text-decoration-color: initial; float: none; display: inline !important;&quot;&gt;input&lt;/span&gt;" style="text;whiteSpace=wrap;html=1;" vertex="1" parent="1">
          <mxGeometry x="584" y="50" width="70" height="40" as="geometry" />
        </mxCell>
        <mxCell id="rrv1fCtY0zLjdle_xPSd-38" value="" style="endArrow=classic;html=1;rounded=0;exitX=0.5;exitY=1;exitDx=0;exitDy=0;" edge="1" parent="1" source="rrv1fCtY0zLjdle_xPSd-26">
          <mxGeometry width="50" height="50" relative="1" as="geometry">
            <mxPoint x="474" y="210" as="sourcePoint" />
            <mxPoint x="469" y="440" as="targetPoint" />
          </mxGeometry>
        </mxCell>
        <mxCell id="rrv1fCtY0zLjdle_xPSd-39" value="" style="endArrow=classic;html=1;rounded=0;exitX=0.5;exitY=1;exitDx=0;exitDy=0;" edge="1" parent="1">
          <mxGeometry width="50" height="50" relative="1" as="geometry">
            <mxPoint x="608.5" y="390" as="sourcePoint" />
            <mxPoint x="608.5" y="440" as="targetPoint" />
          </mxGeometry>
        </mxCell>
        <mxCell id="rrv1fCtY0zLjdle_xPSd-40" value="&lt;font style=&quot;font-size: 16px;&quot;&gt;1.&lt;/font&gt;" style="text;html=1;strokeColor=none;fillColor=none;align=center;verticalAlign=middle;whiteSpace=wrap;rounded=0;" vertex="1" parent="1">
          <mxGeometry x="434" y="20" width="60" height="30" as="geometry" />
        </mxCell>
        <mxCell id="rrv1fCtY0zLjdle_xPSd-41" value="&lt;font style=&quot;font-size: 16px;&quot;&gt;2.&lt;/font&gt;" style="text;html=1;strokeColor=none;fillColor=none;align=center;verticalAlign=middle;whiteSpace=wrap;rounded=0;" vertex="1" parent="1">
          <mxGeometry x="574" y="20" width="60" height="30" as="geometry" />
        </mxCell>
        <mxCell id="rrv1fCtY0zLjdle_xPSd-42" value="" style="rounded=0;whiteSpace=wrap;html=1;fillColor=none;" vertex="1" parent="1">
          <mxGeometry x="34" y="50" width="620" height="30" as="geometry" />
        </mxCell>
        <mxCell id="rrv1fCtY0zLjdle_xPSd-44" value="&lt;font color=&quot;#bd1313&quot; style=&quot;font-size: 14px;&quot;&gt;Same input data&lt;/font&gt;" style="text;html=1;strokeColor=none;fillColor=none;align=center;verticalAlign=middle;whiteSpace=wrap;rounded=0;" vertex="1" parent="1">
          <mxGeometry x="654" y="50" width="60" height="30" as="geometry" />
        </mxCell>
        <mxCell id="rrv1fCtY0zLjdle_xPSd-46" value="" style="verticalLabelPosition=bottom;verticalAlign=top;html=1;shape=mxgraph.basic.tick" vertex="1" parent="1">
          <mxGeometry x="64" y="460" width="50" height="50" as="geometry" />
        </mxCell>
        <mxCell id="rrv1fCtY0zLjdle_xPSd-47" value="" style="verticalLabelPosition=bottom;verticalAlign=top;html=1;shape=mxgraph.basic.tick" vertex="1" parent="1">
          <mxGeometry x="195" y="460" width="50" height="50" as="geometry" />
        </mxCell>
        <mxCell id="rrv1fCtY0zLjdle_xPSd-48" value="" style="verticalLabelPosition=bottom;verticalAlign=top;html=1;shape=mxgraph.basic.tick" vertex="1" parent="1">
          <mxGeometry x="448" y="450" width="50" height="50" as="geometry" />
        </mxCell>
        <mxCell id="rrv1fCtY0zLjdle_xPSd-49" value="" style="verticalLabelPosition=bottom;verticalAlign=top;html=1;shape=mxgraph.basic.x" vertex="1" parent="1">
          <mxGeometry x="586" y="460" width="46" height="50" as="geometry" />
        </mxCell>
        <mxCell id="rrv1fCtY0zLjdle_xPSd-50" value="&lt;font color=&quot;#bd1313&quot;&gt;&lt;span style=&quot;font-size: 14px;&quot;&gt;has inf data&lt;/span&gt;&lt;/font&gt;" style="text;html=1;strokeColor=none;fillColor=none;align=center;verticalAlign=middle;whiteSpace=wrap;rounded=0;" vertex="1" parent="1">
          <mxGeometry x="556" y="430" width="113" height="30" as="geometry" />
        </mxCell>
        <mxCell id="rrv1fCtY0zLjdle_xPSd-51" value="" style="endArrow=classic;html=1;rounded=0;exitX=0.5;exitY=1;exitDx=0;exitDy=0;" edge="1" parent="1">
          <mxGeometry width="50" height="50" relative="1" as="geometry">
            <mxPoint x="83.58" y="90" as="sourcePoint" />
            <mxPoint x="83.58" y="140" as="targetPoint" />
          </mxGeometry>
        </mxCell>
        <mxCell id="rrv1fCtY0zLjdle_xPSd-52" value="" style="endArrow=classic;html=1;rounded=0;exitX=0.5;exitY=1;exitDx=0;exitDy=0;" edge="1" parent="1">
          <mxGeometry width="50" height="50" relative="1" as="geometry">
            <mxPoint x="224.57999999999998" y="90" as="sourcePoint" />
            <mxPoint x="224.57999999999998" y="140" as="targetPoint" />
          </mxGeometry>
        </mxCell>
        <mxCell id="rrv1fCtY0zLjdle_xPSd-53" value="" style="endArrow=classic;html=1;rounded=0;exitX=0.5;exitY=1;exitDx=0;exitDy=0;" edge="1" parent="1">
          <mxGeometry width="50" height="50" relative="1" as="geometry">
            <mxPoint x="468.58" y="90" as="sourcePoint" />
            <mxPoint x="468.58" y="140" as="targetPoint" />
          </mxGeometry>
        </mxCell>
        <mxCell id="rrv1fCtY0zLjdle_xPSd-54" value="" style="endArrow=classic;html=1;rounded=0;exitX=0.5;exitY=1;exitDx=0;exitDy=0;" edge="1" parent="1">
          <mxGeometry width="50" height="50" relative="1" as="geometry">
            <mxPoint x="608.58" y="85" as="sourcePoint" />
            <mxPoint x="608.58" y="135" as="targetPoint" />
          </mxGeometry>
        </mxCell>
        <mxCell id="rrv1fCtY0zLjdle_xPSd-56" value="&lt;font style=&quot;font-size: 14px;&quot;&gt;input&lt;/font&gt;" style="text;html=1;strokeColor=none;fillColor=none;align=center;verticalAlign=middle;whiteSpace=wrap;rounded=0;" vertex="1" parent="1">
          <mxGeometry x="190" y="50" width="60" height="30" as="geometry" />
        </mxCell>
        <mxCell id="rrv1fCtY0zLjdle_xPSd-57" value="&lt;font style=&quot;font-size: 14px;&quot;&gt;input&lt;/font&gt;" style="text;html=1;strokeColor=none;fillColor=none;align=center;verticalAlign=middle;whiteSpace=wrap;rounded=0;" vertex="1" parent="1">
          <mxGeometry x="440" y="50" width="54" height="30" as="geometry" />
        </mxCell>
      </root>
    </mxGraphModel>
  </diagram>
</mxfile>
